<svg xmlns="http://www.w3.org/2000/svg" viewBox="0 0 200 200" fill="none">
  <!-- Stylized GoElev8 mark: figure-8 outer, S-curve interior negative space -->
  <path d="M100 18
           C 138 18, 168 38, 168 70
           C 168 88, 156 102, 138 110
           C 158 118, 172 134, 172 156
           C 172 188, 142 208, 100 208
           C 58 208, 28 188, 28 156
           C 28 134, 42 118, 62 110
           C 44 102, 32 88, 32 70
           C 32 38, 62 18, 100 18 Z
           M 100 42
           C 78 42, 60 54, 60 72
           C 60 86, 72 96, 92 100
           C 78 110, 64 124, 64 144
           C 64 168, 78 184, 100 184
           C 122 184, 136 168, 136 144
           C 136 124, 122 110, 108 100
           C 128 96, 140 86, 140 72
           C 140 54, 122 42, 100 42 Z"
        fill="white"
        transform="translate(0,-8) scale(0.9) translate(11,11)"/>
</svg>
